<svg width="1200" height="630" xmlns="http://www.w3.org/2000/svg">
  <defs>
    <linearGradient id="bg" x1="0%" y1="0%" x2="100%" y2="100%">
      <stop offset="0%" stop-color="#0f0f0f"/>
      <stop offset="100%" stop-color="#1a1a2e"/>
    </linearGradient>
    <linearGradient id="accent" x1="0%" y1="0%" x2="100%" y2="0%">
      <stop offset="0%" stop-color="#6d28d9"/>
      <stop offset="100%" stop-color="#8b5cf6"/>
    </linearGradient>
  </defs>

  <rect width="1200" height="630" fill="url(#bg)"/>

  <!-- Grid pattern -->
  <g opacity="0.06" stroke="#8b5cf6" stroke-width="1">
    <line x1="0" y1="0" x2="0" y2="630"/><line x1="60" y1="0" x2="60" y2="630"/>
    <line x1="120" y1="0" x2="120" y2="630"/><line x1="180" y1="0" x2="180" y2="630"/>
    <line x1="240" y1="0" x2="240" y2="630"/><line x1="300" y1="0" x2="300" y2="630"/>
    <line x1="360" y1="0" x2="360" y2="630"/><line x1="420" y1="0" x2="420" y2="630"/>
    <line x1="480" y1="0" x2="480" y2="630"/><line x1="540" y1="0" x2="540" y2="630"/>
    <line x1="600" y1="0" x2="600" y2="630"/><line x1="660" y1="0" x2="660" y2="630"/>
    <line x1="720" y1="0" x2="720" y2="630"/><line x1="780" y1="0" x2="780" y2="630"/>
    <line x1="840" y1="0" x2="840" y2="630"/><line x1="900" y1="0" x2="900" y2="630"/>
    <line x1="960" y1="0" x2="960" y2="630"/><line x1="1020" y1="0" x2="1020" y2="630"/>
    <line x1="1080" y1="0" x2="1080" y2="630"/><line x1="1140" y1="0" x2="1140" y2="630"/>
    <line x1="0" y1="60" x2="1200" y2="60"/><line x1="0" y1="120" x2="1200" y2="120"/>
    <line x1="0" y1="180" x2="1200" y2="180"/><line x1="0" y1="240" x2="1200" y2="240"/>
    <line x1="0" y1="300" x2="1200" y2="300"/><line x1="0" y1="360" x2="1200" y2="360"/>
    <line x1="0" y1="420" x2="1200" y2="420"/><line x1="0" y1="480" x2="1200" y2="480"/>
    <line x1="0" y1="540" x2="1200" y2="540"/>
  </g>

  <!-- Code snippets background decoration -->
  <g opacity="0.12" font-family="monospace" font-size="14" fill="#8b5cf6">
    <text x="680" y="80">const dev = () =&gt; {</text>
    <text x="700" y="100">return "clean code";</text>
    <text x="680" y="120">};</text>
    <text x="750" y="170">import { logic } from "mind";</text>
    <text x="700" y="220">async function solve(problem) {</text>
    <text x="720" y="240">const solution = await think(problem);</text>
    <text x="720" y="260">return optimize(solution);</text>
    <text x="700" y="280">}</text>
    <text x="680" y="340">while (alive) { learn(); build(); }</text>
    <text x="720" y="400">git commit -m "ship it"</text>
    <text x="750" y="450">[ mass, _, _, _ ] = stack;</text>
    <text x="700" y="510">if (bugs === 0) celebrate();</text>
    <text x="680" y="560">// TODO: sleep</text>
  </g>

  <!-- Accent line -->
  <rect x="80" y="200" width="5" height="120" rx="3" fill="url(#accent)"/>

  <!-- Main text -->
  <text x="110" y="255" font-family="system-ui, -apple-system, sans-serif" font-size="72" font-weight="700" fill="#e4e4e7" letter-spacing="-2">
    pygabo<tspan fill="#8b5cf6">.</tspan>
  </text>

  <text x="110" y="310" font-family="system-ui, -apple-system, sans-serif" font-size="28" fill="#a1a1aa" font-weight="400">
    Hola, soy Gabo
  </text>

  <!-- Terminal prompt -->
  <rect x="80" y="400" width="420" height="48" rx="8" fill="#242424" opacity="0.8"/>
  <text x="100" y="430" font-family="monospace" font-size="16" fill="#6d28d9">$</text>
  <text x="120" y="430" font-family="monospace" font-size="16" fill="#a1a1aa">cd /dev/life &amp;&amp; code .</text>
  <rect x="323" y="415" width="10" height="20" fill="#8b5cf6" opacity="0.7"/>

  <!-- URL -->
  <text x="80" y="560" font-family="monospace" font-size="18" fill="#6d28d9">imgabo.dev</text>

  <!-- Border accent bottom -->
  <rect x="0" y="624" width="1200" height="6" fill="url(#accent)"/>
</svg>
